{"asset":{"generator":"FBX2glTF v0.9.7","version":"2.0"},"scene":0,"buffers":[{"byteLength":804156,"uri":"buffer.bin"}],"bufferViews":[{"buffer":0,"byteLength":196,"byteOffset":0},{"buffer":0,"byteLength":784,"byteOffset":196},{"buffer":0,"byteLength":784,"byteOffset":980},{"buffer":0,"byteLength":784,"byteOffset":1764},{"buffer":0,"byteLength":784,"byteOffset":2548},{"buffer":0,"byteLength":784,"byteOffset":3332},{"buffer":0,"byteLength":588,"byteOffset":4116},{"buffer":0,"byteLength":784,"byteOffset":4704},{"buffer":0,"byteLength":588,"byteOffset":5488},{"buffer":0,"byteLength":784,"byteOffset":6076},{"buffer":0,"byteLength":588,"byteOffset":6860},{"buffer":0,"byteLength":784,"byteOffset":7448},{"buffer":0,"byteLength":588,"byteOffset":8232},{"buffer":0,"byteLength":784,"byteOffset":8820},{"buffer":0,"byteLength":588,"byteOffset":9604},{"buffer":0,"byteLength":784,"byteOffset":10192},{"buffer":0,"byteLength":35172,"byteOffset":10976,"target":34963},{"buffer":0,"byteLength":37716,"byteOffset":46148,"target":34962},{"buffer":0,"byteLength":37716,"byteOffset":83864,"target":34962},{"buffer":0,"byteLength":50288,"byteOffset":121580,"target":34962},{"buffer":0,"byteLength":25144,"byteOffset":171868,"target":34962},{"buffer":0,"byteLength":25144,"byteOffset":197012,"target":34962},{"buffer":0,"byteLength":50288,"byteOffset":222156,"target":34962},{"buffer":0,"byteLength":1020,"byteOffset":272444,"target":34963},{"buffer":0,"byteLength":1692,"byteOffset":273464,"target":34962},{"buffer":0,"byteLength":1692,"byteOffset":275156,"target":34962},{"buffer":0,"byteLength":2256,"byteOffset":276848,"target":34962},{"buffer":0,"byteLength":1128,"byteOffset":279104,"target":34962},{"buffer":0,"byteLength":1128,"byteOffset":280232,"target":34962},{"buffer":0,"byteLength":2256,"byteOffset":281360,"target":34962},{"buffer":0,"byteLength":1020,"byteOffset":283616,"target":34963},{"buffer":0,"byteLength":1692,"byteOffset":284636,"target":34962},{"buffer":0,"byteLength":1692,"byteOffset":286328,"target":34962},{"buffer":0,"byteLength":2256,"byteOffset":288020,"target":34962},{"buffer":0,"byteLength":1128,"byteOffset":290276,"target":34962},{"buffer":0,"byteLength":1128,"byteOffset":291404,"target":34962},{"buffer":0,"byteLength":2256,"byteOffset":292532,"target":34962},{"buffer":0,"byteLength":1020,"byteOffset":294788,"target":34963},{"buffer":0,"byteLength":1692,"byteOffset":295808,"target":34962},{"buffer":0,"byteLength":1692,"byteOffset":297500,"target":34962},{"buffer":0,"byteLength":2256,"byteOffset":299192,"target":34962},{"buffer":0,"byteLength":1128,"byteOffset":301448,"target":34962},{"buffer":0,"byteLength":1128,"byteOffset":302576,"target":34962},{"buffer":0,"byteLength":2256,"byteOffset":303704,"target":34962},{"buffer":0,"byteLength":1020,"byteOffset":305960,"target":34963},{"buffer":0,"byteLength":1692,"byteOffset":306980,"target":34962},{"buffer":0,"byteLength":1692,"byteOffset":308672,"target":34962},{"buffer":0,"byteLength":2256,"byteOffset":310364,"target":34962},{"buffer":0,"byteLength":1128,"byteOffset":312620,"target":34962},{"buffer":0,"byteLength":1128,"byteOffset":313748,"target":34962},{"buffer":0,"byteLength":2256,"byteOffset":314876,"target":34962},{"buffer":0,"byteLength":1020,"byteOffset":317132,"target":34963},{"buffer":0,"byteLength":1692,"byteOffset":318152,"target":34962},{"buffer":0,"byteLength":1692,"byteOffset":319844,"target":34962},{"buffer":0,"byteLength":2256,"byteOffset":321536,"target":34962},{"buffer":0,"byteLength":1128,"byteOffset":323792,"target":34962},{"buffer":0,"byteLength":1128,"byteOffset":324920,"target":34962},{"buffer":0,"byteLength":2256,"byteOffset":326048,"target":34962},{"buffer":0,"byteLength":1020,"byteOffset":328304,"target":34963},{"buffer":0,"byteLength":1692,"byteOffset":329324,"target":34962},{"buffer":0,"byteLength":1692,"byteOffset":331016,"target":34962},{"buffer":0,"byteLength":2256,"byteOffset":332708,"target":34962},{"buffer":0,"byteLength":1128,"byteOffset":334964,"target":34962},{"buffer":0,"byteLength":1128,"byteOffset":336092,"target":34962},{"buffer":0,"byteLength":2256,"byteOffset":337220,"target":34962},{"buffer":0,"byteLength":1020,"byteOffset":339476,"target":34963},{"buffer":0,"byteLength":1692,"byteOffset":340496,"target":34962},{"buffer":0,"byteLength":1692,"byteOffset":342188,"target":34962},{"buffer":0,"byteLength":2256,"byteOffset":343880,"target":34962},{"buffer":0,"byteLength":1128,"byteOffset":346136,"target":34962},{"buffer":0,"byteLength":1128,"byteOffset":347264,"target":34962},{"buffer":0,"byteLength":2256,"byteOffset":348392,"target":34962},{"buffer":0,"byteLength":19092,"byteOffset":350648,"target":34963},{"buffer":0,"byteLength":107916,"byteOffset":369740,"target":34962},{"buffer":0,"byteLength":107916,"byteOffset":477656,"target":34962},{"buffer":0,"byteLength":143888,"byteOffset":585572,"target":34962},{"buffer":0,"byteLength":71944,"byteOffset":729460,"target":34962},{"buffer":0,"byteLength":448,"byteOffset":801404},{"buffer":0,"byteLength":320,"byteOffset":801852},{"buffer":0,"byteLength":320,"byteOffset":802172},{"buffer":0,"byteLength":320,"byteOffset":802492},{"buffer":0,"byteLength":320,"byteOffset":802812},{"buffer":0,"byteLength":384,"byteOffset":803132},{"buffer":0,"byteLength":320,"byteOffset":803516},{"buffer":0,"byteLength":320,"byteOffset":803836}],"scenes":[{"name":"Root Scene","nodes":[0]}],"accessors":[{"componentType":5126,"type":"SCALAR","count":49,"bufferView":0,"byteOffset":0,"min":[0],"max":[2]},{"componentType":5126,"type":"VEC4","count":49,"bufferView":1,"byteOffset":0},{"componentType":5126,"type":"VEC4","count":49,"bufferView":2,"byteOffset":0},{"componentType":5126,"type":"VEC4","count":49,"bufferView":3,"byteOffset":0},{"componentType":5126,"type":"VEC4","count":49,"bufferView":4,"byteOffset":0},{"componentType":5126,"type":"VEC4","count":49,"bufferView":5,"byteOffset":0},{"componentType":5126,"type":"VEC3","count":49,"bufferView":6,"byteOffset":0},{"componentType":5126,"type":"VEC4","count":49,"bufferView":7,"byteOffset":0},{"componentType":5126,"type":"VEC3","count":49,"bufferView":8,"byteOffset":0},{"componentType":5126,"type":"VEC4","count":49,"bufferView":9,"byteOffset":0},{"componentType":5126,"type":"VEC3","count":49,"bufferView":10,"byteOffset":0},{"componentType":5126,"type":"VEC4","count":49,"bufferView":11,"byteOffset":0},{"componentType":5126,"type":"VEC3","count":49,"bufferView":12,"byteOffset":0},{"componentType":5126,"type":"VEC4","count":49,"bufferView":13,"byteOffset":0},{"componentType":5126,"type":"VEC3","count":49,"bufferView":14,"byteOffset":0},{"componentType":5126,"type":"VEC4","count":49,"bufferView":15,"byteOffset":0},{"componentType":5123,"type":"SCALAR","count":17586,"bufferView":16,"byteOffset":0},{"componentType":5126,"type":"VEC3","count":3143,"bufferView":17,"byteOffset":0,"min":[-0.00223670131526887,-0.0000777827081037685,-0.00217141513712704],"max":[0.00252200895920396,0.06419537961483,0.00224113441072404]},{"componentType":5126,"type":"VEC3","count":3143,"bufferView":18,"byteOffset":0},{"componentType":5126,"type":"VEC4","count":3143,"bufferView":19,"byteOffset":0},{"componentType":5126,"type":"VEC2","count":3143,"bufferView":20,"byteOffset":0},{"componentType":5123,"type":"VEC4","count":3143,"bufferView":21,"byteOffset":0},{"componentType":5126,"type":"VEC4","count":3143,"bufferView":22,"byteOffset":0},{"componentType":5123,"type":"SCALAR","count":510,"bufferView":23,"byteOffset":0},{"componentType":5126,"type":"VEC3","count":141,"bufferView":24,"byteOffset":0,"min":[0.00222804141230881,0.000670435430947691,-0.000578622799366713],"max":[0.00345644564367831,0.00666032219305634,0.0007598209194839]},{"componentType":5126,"type":"VEC3","count":141,"bufferView":25,"byteOffset":0},{"componentType":5126,"type":"VEC4","count":141,"bufferView":26,"byteOffset":0},{"componentType":5126,"type":"VEC2","count":141,"bufferView":27,"byteOffset":0},{"componentType":5123,"type":"VEC4","count":141,"bufferView":28,"byteOffset":0},{"componentType":5126,"type":"VEC4","count":141,"bufferView":29,"byteOffset":0},{"componentType":5123,"type":"SCALAR","count":510,"bufferView":30,"byteOffset":0},{"componentType":5126,"type":"VEC3","count":141,"bufferView":31,"byteOffset":0,"min":[-0.000478556583402678,0.00511167803779244,0.00185026170220226],"max":[0.000869155628606677,0.0105724427849054,0.00301837921142578]},{"componentType":5126,"type":"VEC3","count":141,"bufferView":32,"byteOffset":0},{"componentType":5126,"type":"VEC4","count":141,"bufferView":33,"byteOffset":0},{"componentType":5126,"type":"VEC2","count":141,"bufferView":34,"byteOffset":0},{"componentType":5123,"type":"VEC4","count":141,"bufferView":35,"byteOffset":0},{"componentType":5126,"type":"VEC4","count":141,"bufferView":36,"byteOffset":0},{"componentType":5123,"type":"SCALAR","count":510,"bufferView":37,"byteOffset":0},{"componentType":5126,"type":"VEC3","count":141,"bufferView":38,"byteOffset":0,"min":[-0.00171594636049122,0.0162506960332394,0.00119836325757205],"max":[-0.000440439209342003,0.0213741306215525,0.00288980477489531]},{"componentType":5126,"type":"VEC3","count":141,"bufferView":39,"byteOffset":0},{"componentType":5126,"type":"VEC4","count":141,"bufferView":40,"byteOffset":0},{"componentType":5126,"type":"VEC2","count":141,"bufferView":41,"byteOffset":0},{"componentType":5123,"type":"VEC4","count":141,"bufferView":42,"byteOffset":0},{"componentType":5126,"type":"VEC4","count":141,"bufferView":43,"byteOffset":0},{"componentType":5123,"type":"SCALAR","count":510,"bufferView":44,"byteOffset":0},{"componentType":5126,"type":"VEC3","count":141,"bufferView":45,"byteOffset":0,"min":[0.000395570299588144,0.0217773169279099,0.00110975734423846],"max":[0.00175306282471865,0.0269011463969946,0.00266352179460227]},{"componentType":5126,"type":"VEC3","count":141,"bufferView":46,"byteOffset":0},{"componentType":5126,"type":"VEC4","count":141,"bufferView":47,"byteOffset":0},{"componentType":5126,"type":"VEC2","count":141,"bufferView":48,"byteOffset":0},{"componentType":5123,"type":"VEC4","count":141,"bufferView":49,"byteOffset":0},{"componentType":5126,"type":"VEC4","count":141,"bufferView":50,"byteOffset":0},{"componentType":5123,"type":"SCALAR","count":510,"bufferView":51,"byteOffset":0},{"componentType":5126,"type":"VEC3","count":141,"bufferView":52,"byteOffset":0,"min":[-0.000614726624917239,0.0407881960272789,0.000750842096749693],"max":[0.000394963193684816,0.0452749021351337,0.00213535549119115]},{"componentType":5126,"type":"VEC3","count":141,"bufferView":53,"byteOffset":0},{"componentType":5126,"type":"VEC4","count":141,"bufferView":54,"byteOffset":0},{"componentType":5126,"type":"VEC2","count":141,"bufferView":55,"byteOffset":0},{"componentType":5123,"type":"VEC4","count":141,"bufferView":56,"byteOffset":0},{"componentType":5126,"type":"VEC4","count":141,"bufferView":57,"byteOffset":0},{"componentType":5123,"type":"SCALAR","count":510,"bufferView":58,"byteOffset":0},{"componentType":5126,"type":"VEC3","count":141,"bufferView":59,"byteOffset":0,"min":[-0.000947994121816009,0.0563021749258041,0.0000690984743414447],"max":[-0.000163431468536146,0.0595771595835686,0.000872690638061613]},{"componentType":5126,"type":"VEC3","count":141,"bufferView":60,"byteOffset":0},{"componentType":5126,"type":"VEC4","count":141,"bufferView":61,"byteOffset":0},{"componentType":5126,"type":"VEC2","count":141,"bufferView":62,"byteOffset":0},{"componentType":5123,"type":"VEC4","count":141,"bufferView":63,"byteOffset":0},{"componentType":5126,"type":"VEC4","count":141,"bufferView":64,"byteOffset":0},{"componentType":5123,"type":"SCALAR","count":510,"bufferView":65,"byteOffset":0},{"componentType":5126,"type":"VEC3","count":141,"bufferView":66,"byteOffset":0,"min":[-0.000190364400623366,0.0613280050456524,0.000178132046130486],"max":[0.000503451155964285,0.06397794932127,0.00116568792145699]},{"componentType":5126,"type":"VEC3","count":141,"bufferView":67,"byteOffset":0},{"componentType":5126,"type":"VEC4","count":141,"bufferView":68,"byteOffset":0},{"componentType":5126,"type":"VEC2","count":141,"bufferView":69,"byteOffset":0},{"componentType":5123,"type":"VEC4","count":141,"bufferView":70,"byteOffset":0},{"componentType":5126,"type":"VEC4","count":141,"bufferView":71,"byteOffset":0},{"componentType":5123,"type":"SCALAR","count":9546,"bufferView":72,"byteOffset":0},{"componentType":5126,"type":"VEC3","count":8993,"bufferView":73,"byteOffset":0,"min":[-0.0263271238654852,-0.000430783606134355,-0.0113983321934938],"max":[0.01151417568326,0.0215047840029001,0.0175079107284546]},{"componentType":5126,"type":"VEC3","count":8993,"bufferView":74,"byteOffset":0},{"componentType":5126,"type":"VEC4","count":8993,"bufferView":75,"byteOffset":0},{"componentType":5126,"type":"VEC2","count":8993,"bufferView":76,"byteOffset":0},{"componentType":5126,"type":"MAT4","count":7,"bufferView":77,"byteOffset":0},{"componentType":5126,"type":"MAT4","count":5,"bufferView":78,"byteOffset":0},{"componentType":5126,"type":"MAT4","count":5,"bufferView":79,"byteOffset":0},{"componentType":5126,"type":"MAT4","count":5,"bufferView":80,"byteOffset":0},{"componentType":5126,"type":"MAT4","count":5,"bufferView":81,"byteOffset":0},{"componentType":5126,"type":"MAT4","count":6,"bufferView":82,"byteOffset":0},{"componentType":5126,"type":"MAT4","count":5,"bufferView":83,"byteOffset":0},{"componentType":5126,"type":"MAT4","count":5,"bufferView":84,"byteOffset":0}],"samplers":[{}],"images":[{"uri":"T_Basilisk_baseColor.jpg"},{"uri":"T_Basilisk_occlusionRoughnessMetallic.jpg"},{"uri":"T_Basilisk_normal.jpg"},{"uri":"T_Well_baseColor.jpg"},{"uri":"T_Well_occlusionRoughnessMetallic.jpg"},{"uri":"T_Well_normal.jpg"}],"materials":[{"alphaMode":"OPAQUE","name":"T_Basilisk","normalTexture":{"index":2},"occlusionTexture":{"index":1},"pbrMetallicRoughness":{"baseColorTexture":{"index":0},"metallicRoughnessTexture":{"index":1}}},{"alphaMode":"OPAQUE","name":"T_Well","normalTexture":{"index":5},"occlusionTexture":{"index":4},"pbrMetallicRoughness":{"baseColorTexture":{"index":3},"metallicRoughnessTexture":{"index":4}}}],"meshes":[{"name":"Basilisk_Tail_LOW","primitives":[{"material":0,"mode":4,"attributes":{"JOINTS_0":21,"NORMAL":18,"POSITION":17,"TANGENT":19,"TEXCOORD_0":20,"WEIGHTS_0":22},"indices":16}]},{"name":"feather_Low1","primitives":[{"material":0,"mode":4,"attributes":{"JOINTS_0":28,"NORMAL":25,"POSITION":24,"TANGENT":26,"TEXCOORD_0":27,"WEIGHTS_0":29},"indices":23}]},{"name":"feather_Low2","primitives":[{"material":0,"mode":4,"attributes":{"JOINTS_0":35,"NORMAL":32,"POSITION":31,"TANGENT":33,"TEXCOORD_0":34,"WEIGHTS_0":36},"indices":30}]},{"name":"feather_Low3","primitives":[{"material":0,"mode":4,"attributes":{"JOINTS_0":42,"NORMAL":39,"POSITION":38,"TANGENT":40,"TEXCOORD_0":41,"WEIGHTS_0":43},"indices":37}]},{"name":"feather_Low4","primitives":[{"material":0,"mode":4,"attributes":{"JOINTS_0":49,"NORMAL":46,"POSITION":45,"TANGENT":47,"TEXCOORD_0":48,"WEIGHTS_0":50},"indices":44}]},{"name":"feather_Low5","primitives":[{"material":0,"mode":4,"attributes":{"JOINTS_0":56,"NORMAL":53,"POSITION":52,"TANGENT":54,"TEXCOORD_0":55,"WEIGHTS_0":57},"indices":51}]},{"name":"feather_Low6","primitives":[{"material":0,"mode":4,"attributes":{"JOINTS_0":63,"NORMAL":60,"POSITION":59,"TANGENT":61,"TEXCOORD_0":62,"WEIGHTS_0":64},"indices":58}]},{"name":"feather_Low7","primitives":[{"material":0,"mode":4,"attributes":{"JOINTS_0":70,"NORMAL":67,"POSITION":66,"TANGENT":68,"TEXCOORD_0":69,"WEIGHTS_0":71},"indices":65}]},{"name":"SM_Basilisk","primitives":[{"material":1,"mode":4,"attributes":{"NORMAL":74,"POSITION":73,"TANGENT":75,"TEXCOORD_0":76},"indices":72}]}],"skins":[{"joints":[10,11,12,13,14,15,16],"inverseBindMatrices":77,"skeleton":10},{"joints":[10,11,12,13,14],"inverseBindMatrices":78,"skeleton":10},{"joints":[10,11,12,13,14],"inverseBindMatrices":79,"skeleton":10},{"joints":[10,11,12,13,14],"inverseBindMatrices":80,"skeleton":10},{"joints":[10,11,12,13,14],"inverseBindMatrices":81,"skeleton":10},{"joints":[11,12,13,14,15,16],"inverseBindMatrices":82,"skeleton":11},{"joints":[12,13,14,15,16],"inverseBindMatrices":83,"skeleton":12},{"joints":[12,13,14,15,16],"inverseBindMatrices":84,"skeleton":12}],"animations":[{"name":"Neutral","channels":[{"sampler":0,"target":{"node":11,"path":"rotation"}},{"sampler":1,"target":{"node":12,"path":"rotation"}},{"sampler":2,"target":{"node":13,"path":"rotation"}},{"sampler":3,"target":{"node":14,"path":"rotation"}},{"sampler":4,"target":{"node":15,"path":"rotation"}},{"sampler":5,"target":{"node":18,"path":"translation"}},{"sampler":6,"target":{"node":18,"path":"rotation"}},{"sampler":7,"target":{"node":19,"path":"translation"}},{"sampler":8,"target":{"node":19,"path":"rotation"}},{"sampler":9,"target":{"node":20,"path":"translation"}},{"sampler":10,"target":{"node":20,"path":"rotation"}},{"sampler":11,"target":{"node":21,"path":"translation"}},{"sampler":12,"target":{"node":21,"path":"rotation"}},{"sampler":13,"target":{"node":22,"path":"translation"}},{"sampler":14,"target":{"node":22,"path":"rotation"}}],"samplers":[{"input":0,"interpolation":"LINEAR","output":1},{"input":0,"interpolation":"LINEAR","output":2},{"input":0,"interpolation":"LINEAR","output":3},{"input":0,"interpolation":"LINEAR","output":4},{"input":0,"interpolation":"LINEAR","output":5},{"input":0,"interpolation":"LINEAR","output":6},{"input":0,"interpolation":"LINEAR","output":7},{"input":0,"interpolation":"LINEAR","output":8},{"input":0,"interpolation":"LINEAR","output":9},{"input":0,"interpolation":"LINEAR","output":10},{"input":0,"interpolation":"LINEAR","output":11},{"input":0,"interpolation":"LINEAR","output":12},{"input":0,"interpolation":"LINEAR","output":13},{"input":0,"interpolation":"LINEAR","output":14},{"input":0,"interpolation":"LINEAR","output":15}]}],"nodes":[{"name":"RootNode","translation":[0,0,0],"rotation":[0,0,0,1],"scale":[1,1,1],"children":[1,10,17,23]},{"name":"LOW_EXP","translation":[0,0,0],"rotation":[0,0,0,1],"scale":[1,1,1],"children":[2,3,4,5,6,7,8,9]},{"name":"Basilisk_Tail_LOW","translation":[0,0,0],"rotation":[0,0,0,1],"scale":[1,1,1],"mesh":0,"skin":0},{"name":"feather_Low1","translation":[0,0,0],"rotation":[0,0,0,1],"scale":[1,1,1],"mesh":1,"skin":1},{"name":"feather_Low2","translation":[0,0,0],"rotation":[0,0,0,1],"scale":[1,1,1],"mesh":2,"skin":2},{"name":"feather_Low3","translation":[0,0,0],"rotation":[0,0,0,1],"scale":[1,1,1],"mesh":3,"skin":3},{"name":"feather_Low4","translation":[0,0,0],"rotation":[0,0,0,1],"scale":[1,1,1],"mesh":4,"skin":4},{"name":"feather_Low5","translation":[0,0,0],"rotation":[0,0,0,1],"scale":[1,1,1],"mesh":5,"skin":5},{"name":"feather_Low6","translation":[0,0,0],"rotation":[0,0,0,1],"scale":[1,1,1],"mesh":6,"skin":6},{"name":"feather_Low7","translation":[0,0,0],"rotation":[0,0,0,1],"scale":[1,1,1],"mesh":7,"skin":7},{"name":"jnt_root_tail_01","translation":[-0.00293735461309552,0.00102093303576112,0.00863228272646666],"rotation":[-0.141140714287758,0.329055666923523,0.582044124603271,0.730086505413055],"scale":[1,1,1],"children":[11]},{"name":"jnt_tail_02","translation":[0.0139373550191522,2.77555739612677e-18,-3.33066899942921e-18],"rotation":[0.000788526493124664,0.00438880966976285,-0.0030962664168328,0.99998527765274],"scale":[1,1,1],"children":[12]},{"name":"jnt_tail_03","translation":[0.0124428663402796,3.88578060273166e-18,0],"rotation":[0.000779608788434416,0.286849021911621,-0.134392574429512,0.948501825332642],"scale":[1,1,1],"children":[13]},{"name":"jnt_tail_04","translation":[0.0125580783933401,5.55111479225354e-18,0],"rotation":[0.00828031171113253,0.316250801086426,-0.145693600177765,0.937384784221649],"scale":[1,1,1],"children":[14]},{"name":"jnt_tail_05","translation":[0.00898651499301195,4.44089199923895e-18,-4.44089199923895e-18],"rotation":[0.0323697961866856,0.501252174377441,-0.157171472907066,0.85029149055481],"scale":[1,1,1],"children":[15]},{"name":"jnt_tail_06","translation":[0.00898651499301195,2.22044599961948e-18,4.44089199923895e-18],"rotation":[0.0206810366362333,0.425352364778519,-0.116678848862648,0.897236704826355],"scale":[1,1,1],"children":[16]},{"name":"jnt_tail_07","translation":[0.00691270409151912,2.22044599961948e-18,1.11022299980974e-18],"rotation":[-1.38777878078145e-17,-3.85185988877447e-34,2.77555756156289e-17,1],"scale":[1,1,1]},{"name":"ctrl_root_tail_01","translation":[-0.00293735461309552,0.00102093303576112,0.00863228272646666],"rotation":[-0.332479059696198,0.132875934243202,-0.104681812226772,0.927816450595856],"scale":[1,1,1],"children":[18]},{"name":"ctrl_tail_02","translation":[-0.0000862097876961343,8.04144065114087e-7,0.000122403056593612],"rotation":[-0.00438880966976285,0.000788526493124664,-0.0030962664168328,0.99998527765274],"scale":[1,1,1],"children":[19]},{"name":"ctrl_tail_03","translation":[-0.00671365903690457,0.00529417907819152,0.0143604213371873],"rotation":[-0.286849021911621,0.000779608788434416,-0.134392574429512,0.948501825332642],"scale":[1,1,1],"children":[20]},{"name":"ctrl_tail_04","translation":[-0.010431750677526,0.00944185256958008,0.023180365562439],"rotation":[-0.316250801086426,0.00828031171113253,-0.145693600177765,0.937384784221649],"scale":[1,1,1],"children":[21]},{"name":"ctrl_tail_05","translation":[-0.0112542938441038,0.0264503378421068,0.0413397587835789],"rotation":[-0.501252174377441,0.0323697961866856,-0.157171472907066,0.85029149055481],"scale":[1,1,1],"children":[22]},{"name":"ctrl_tail_06","translation":[-0.0109146619215608,0.0221429001539946,0.0437141396105289],"rotation":[-0.425352364778519,0.0206810366362333,-0.116678848862648,0.897236704826355],"scale":[1,1,1]},{"name":"SM_Basilisk","translation":[0,0,0],"rotation":[0,0,0,1],"scale":[1,1,1],"mesh":8}],"textures":[{"sampler":0,"source":0},{"sampler":0,"source":1},{"sampler":0,"source":2},{"sampler":0,"source":3},{"sampler":0,"source":4},{"sampler":0,"source":5}]}