{
  "accessors": [
    {
      "bufferView": 0,
      "componentType": 5125,
      "count": 11862,
      "type": "SCALAR"
    },
    {
      "bufferView": 1,
      "componentType": 5126,
      "count": 2435,
      "max": [
        1.0,
        0.713943719863892,
        0.334740519523621
      ],
      "min": [
        -1.0,
        -0.999464690685272,
        -0.334740549325943
      ],
      "type": "VEC3"
    },
    {
      "bufferView": 2,
      "componentType": 5126,
      "count": 2435,
      "type": "VEC3"
    },
    {
      "bufferView": 3,
      "componentType": 5126,
      "count": 2435,
      "type": "VEC2"
    },
    {
      "bufferView": 4,
      "componentType": 5125,
      "count": 1983,
      "type": "SCALAR"
    },
    {
      "bufferView": 5,
      "componentType": 5126,
      "count": 387,
      "max": [
        0.861835896968842,
        0.999464631080627,
        0.0713182613253593
      ],
      "min": [
        0.0283897221088409,
        -0.156656458973885,
        -0.18827112019062
      ],
      "type": "VEC3"
    },
    {
      "bufferView": 6,
      "componentType": 5126,
      "count": 387,
      "type": "VEC3"
    },
    {
      "bufferView": 7,
      "componentType": 5126,
      "count": 387,
      "type": "VEC2"
    },
    {
      "bufferView": 8,
      "componentType": 5125,
      "count": 2112,
      "type": "SCALAR"
    },
    {
      "bufferView": 9,
      "componentType": 5126,
      "count": 399,
      "max": [
        0.000726983416825533,
        0.851692497730255,
        0.0477466434240341
      ],
      "min": [
        -0.0776470005512238,
        0.569751679897308,
        -0.0408548973500729
      ],
      "type": "VEC3"
    },
    {
      "bufferView": 10,
      "componentType": 5126,
      "count": 399,
      "type": "VEC3"
    },
    {
      "bufferView": 11,
      "componentType": 5126,
      "count": 399,
      "type": "VEC2"
    },
    {
      "bufferView": 12,
      "componentType": 5125,
      "count": 594,
      "type": "SCALAR"
    },
    {
      "bufferView": 13,
      "componentType": 5126,
      "count": 125,
      "max": [
        0.0574215985834599,
        0.575677752494812,
        0.0370932668447495
      ],
      "min": [
        0.0246522780507803,
        0.542681574821472,
        0.00190456607379019
      ],
      "type": "VEC3"
    },
    {
      "bufferView": 14,
      "componentType": 5126,
      "count": 125,
      "type": "VEC3"
    },
    {
      "bufferView": 15,
      "componentType": 5126,
      "count": 125,
      "type": "VEC2"
    },
    {
      "bufferView": 16,
      "componentType": 5125,
      "count": 594,
      "type": "SCALAR"
    },
    {
      "bufferView": 17,
      "componentType": 5126,
      "count": 125,
      "max": [
        -0.0246522780507803,
        0.575677752494812,
        0.0370932668447495
      ],
      "min": [
        -0.0574215985834599,
        0.542681574821472,
        0.00190456607379019
      ],
      "type": "VEC3"
    },
    {
      "bufferView": 18,
      "componentType": 5126,
      "count": 125,
      "type": "VEC3"
    },
    {
      "bufferView": 19,
      "componentType": 5126,
      "count": 125,
      "type": "VEC2"
    }
  ],
  "asset": {
    "generator": "Substance Painter 2019.3.3",
    "version": "2.0"
  },
  "bufferViews": [
    {
      "buffer": 0,
      "byteLength": 47448,
      "target": 34963
    },
    {
      "buffer": 0,
      "byteLength": 29220,
      "byteOffset": 47448,
      "target": 34962
    },
    {
      "buffer": 0,
      "byteLength": 29220,
      "byteOffset": 76668,
      "target": 34962
    },
    {
      "buffer": 0,
      "byteLength": 19480,
      "byteOffset": 105888,
      "target": 34962
    },
    {
      "buffer": 0,
      "byteLength": 7932,
      "byteOffset": 125368,
      "target": 34963
    },
    {
      "buffer": 0,
      "byteLength": 4644,
      "byteOffset": 133300,
      "target": 34962
    },
    {
      "buffer": 0,
      "byteLength": 4644,
      "byteOffset": 137944,
      "target": 34962
    },
    {
      "buffer": 0,
      "byteLength": 3096,
      "byteOffset": 142588,
      "target": 34962
    },
    {
      "buffer": 0,
      "byteLength": 8448,
      "byteOffset": 145684,
      "target": 34963
    },
    {
      "buffer": 0,
      "byteLength": 4788,
      "byteOffset": 154132,
      "target": 34962
    },
    {
      "buffer": 0,
      "byteLength": 4788,
      "byteOffset": 158920,
      "target": 34962
    },
    {
      "buffer": 0,
      "byteLength": 3192,
      "byteOffset": 163708,
      "target": 34962
    },
    {
      "buffer": 0,
      "byteLength": 2376,
      "byteOffset": 166900,
      "target": 34963
    },
    {
      "buffer": 0,
      "byteLength": 1500,
      "byteOffset": 169276,
      "target": 34962
    },
    {
      "buffer": 0,
      "byteLength": 1500,
      "byteOffset": 170776,
      "target": 34962
    },
    {
      "buffer": 0,
      "byteLength": 1000,
      "byteOffset": 172276,
      "target": 34962
    },
    {
      "buffer": 0,
      "byteLength": 2376,
      "byteOffset": 173276,
      "target": 34963
    },
    {
      "buffer": 0,
      "byteLength": 1500,
      "byteOffset": 175652,
      "target": 34962
    },
    {
      "buffer": 0,
      "byteLength": 1500,
      "byteOffset": 177152,
      "target": 34962
    },
    {
      "buffer": 0,
      "byteLength": 1000,
      "byteOffset": 178652,
      "target": 34962
    }
  ],
  "buffers": [
    {
      "byteLength": 179652,
      "uri": "Yeti.bin"
    }
  ],
  "images": [
    {
      "uri": "T_Yeti_baseColor.png"
    },
    {
      "uri": "T_Yeti_occlusionRoughnessMetallic.png"
    },
    {
      "uri": "T_Yeti_normal.png"
    }
  ],
  "materials": [
    {
      "alphaMode": "OPAQUE",
      "name": "T_Yeti",
      "normalTexture": {
        "index": 2
      },
      "occlusionTexture": {
        "index": 1
      },
      "pbrMetallicRoughness": {
        "baseColorTexture": {
          "index": 0
        },
        "metallicRoughnessTexture": {
          "index": 1
        }
      }
    }
  ],
  "meshes": [
    {
      "name": "Yeti_body",
      "primitives": [
        {
          "attributes": {
            "NORMAL": 2,
            "POSITION": 1,
            "TEXCOORD_0": 3
          },
          "indices": 0,
          "material": 0,
          "mode": 4
        }
      ]
    },
    {
      "name": "Yeti_Horn_L",
      "primitives": [
        {
          "attributes": {
            "NORMAL": 6,
            "POSITION": 5,
            "TEXCOORD_0": 7
          },
          "indices": 4,
          "material": 0,
          "mode": 4
        }
      ]
    },
    {
      "name": "Yeti_Horn_R",
      "primitives": [
        {
          "attributes": {
            "NORMAL": 10,
            "POSITION": 9,
            "TEXCOORD_0": 11
          },
          "indices": 8,
          "material": 0,
          "mode": 4
        }
      ]
    },
    {
      "name": "Yeti_Eye_L",
      "primitives": [
        {
          "attributes": {
            "NORMAL": 14,
            "POSITION": 13,
            "TEXCOORD_0": 15
          },
          "indices": 12,
          "material": 0,
          "mode": 4
        }
      ]
    },
    {
      "name": "Yeti_Eye_R",
      "primitives": [
        {
          "attributes": {
            "NORMAL": 18,
            "POSITION": 17,
            "TEXCOORD_0": 19
          },
          "indices": 16,
          "material": 0,
          "mode": 4
        }
      ]
    }
  ],
  "nodes": [
    {
      "children": [
        1,
        3,
        5,
        7,
        9
      ],
      "name": "root",
      "scale": [
        4.51220750808716,
        4.51220750808716,
        4.51220750808716
      ],
      "translation": [
        0.0,
        4.50447988510132,
        0.265221118927002
      ]
    },
    {
      "children": [
        2
      ],
      "name": "Yeti_body"
    },
    {
      "mesh": 0,
      "name": "Yeti_body"
    },
    {
      "children": [
        4
      ],
      "name": "Yeti_Horn_L"
    },
    {
      "mesh": 1,
      "name": "Yeti_Horn_L"
    },
    {
      "children": [
        6
      ],
      "name": "Yeti_Horn_R"
    },
    {
      "mesh": 2,
      "name": "Yeti_Horn_R"
    },
    {
      "children": [
        8
      ],
      "name": "Yeti_Eye_L"
    },
    {
      "mesh": 3,
      "name": "Yeti_Eye_L"
    },
    {
      "children": [
        10
      ],
      "name": "Yeti_Eye_R"
    },
    {
      "mesh": 4,
      "name": "Yeti_Eye_R"
    }
  ],
  "samplers": [
    {
      "magFilter": 9729,
      "minFilter": 9985,
      "wrapS": 10497,
      "wrapT": 10497
    }
  ],
  "scene": 0,
  "scenes": [
    {
      "name": "Scene",
      "nodes": [
        0
      ]
    }
  ],
  "textures": [
    {
      "sampler": 0,
      "source": 0
    },
    {
      "sampler": 0,
      "source": 1
    },
    {
      "sampler": 0,
      "source": 2
    }
  ]
}