{"accessors":[{"bufferView":0,"componentType":5125,"count":8394,"type":"SCALAR"},{"bufferView":1,"componentType":5126,"count":1676,"max":[0.742384076118469,0.913609206676483,0.716688871383667],"min":[-0.707430720329285,-1,-0.794441521167755],"type":"VEC3"},{"bufferView":2,"componentType":5126,"count":1676,"type":"VEC3"},{"bufferView":3,"componentType":5126,"count":1676,"type":"VEC2"},{"bufferView":4,"componentType":5125,"count":7728,"type":"SCALAR"},{"bufferView":5,"componentType":5126,"count":2898,"max":[0.904670536518097,1,0.919228613376617],"min":[-0.904670476913452,-0.405274510383606,-0.919228613376617],"type":"VEC3"},{"bufferView":6,"componentType":5126,"count":2898,"type":"VEC3"},{"bufferView":7,"componentType":5126,"count":2898,"type":"VEC2"}],"asset":{"generator":"Substance Painter 2019.3.3","version":"2.0"},"bufferViews":[{"buffer":0,"byteLength":33576,"target":34963},{"buffer":0,"byteLength":20112,"byteOffset":33576,"target":34962},{"buffer":0,"byteLength":20112,"byteOffset":53688,"target":34962},{"buffer":0,"byteLength":13408,"byteOffset":73800,"target":34962},{"buffer":0,"byteLength":30912,"byteOffset":87208,"target":34963},{"buffer":0,"byteLength":34776,"byteOffset":118120,"target":34962},{"buffer":0,"byteLength":34776,"byteOffset":152896,"target":34962},{"buffer":0,"byteLength":23184,"byteOffset":187672,"target":34962}],"buffers":[{"byteLength":210856,"uri":"Char_Tree.bin"}],"images":[{"uri":"T_Leaves_baseColor.png"},{"uri":"T_Leaves_occlusionRoughnessMetallic.png"},{"uri":"T_Leaves_normal.jpg"},{"uri":"T_Tree_baseColor.jpg"},{"uri":"T_Tree_occlusionRoughnessMetallic.jpg"},{"uri":"T_Tree_normal.jpg"}],"materials":[{"alphaMode":"BLEND","name":"T_Leaves","normalTexture":{"index":2},"occlusionTexture":{"index":1},"pbrMetallicRoughness":{"baseColorTexture":{"index":0},"metallicRoughnessTexture":{"index":1}}},{"alphaMode":"OPAQUE","name":"T_Tree","normalTexture":{"index":5},"occlusionTexture":{"index":4},"pbrMetallicRoughness":{"baseColorTexture":{"index":3},"metallicRoughnessTexture":{"index":4}}}],"meshes":[{"name":"Char_Tree","primitives":[{"attributes":{"NORMAL":2,"POSITION":1,"TEXCOORD_0":3},"indices":0,"material":1,"mode":4}]},{"name":"Char_Tree","primitives":[{"attributes":{"NORMAL":6,"POSITION":5,"TEXCOORD_0":7},"indices":4,"material":0,"mode":4}]}],"nodes":[{"children":[1,3],"name":"root","scale":[10.89919090271,10.89919090271,10.89919090271],"translation":[-2.05064964294434,10.194278717041,0.94776725769043]},{"children":[2],"name":"Char_Tree"},{"mesh":0,"name":"Char_Tree"},{"children":[4],"name":"Char_Tree"},{"mesh":1,"name":"Char_Tree"}],"samplers":[{"magFilter":9729,"minFilter":9985,"wrapS":10497,"wrapT":10497}],"scene":0,"scenes":[{"name":"Scene","nodes":[0]}],"textures":[{"sampler":0,"source":0},{"sampler":0,"source":1},{"sampler":0,"source":2},{"sampler":0,"source":3},{"sampler":0,"source":4},{"sampler":0,"source":5}]}